<svg version="1.1" id="Isolation_Mode" xmlns="http://www.w3.org/2000/svg" xmlns:xlink="http://www.w3.org/1999/xlink" x="0px" y="0px" viewBox="0 0 2088.2 636" style="enable-background:new 0 0 2088.2 636;" xml:space="preserve">
<g>
	<path class="st0" d="M576.2,244.9c-8-8-8.9-20.3-10.3-31c-0.7-5.7-0.8-11.9-3.3-17.2c-1.9-3.8-5.4-8.4-8.6-11.2
		c-8.8-7.5-18.9-13.6-27.3-21.4c-5-4.7-9.7-9.7-14.5-14.5c-4.3-4.3-9.5-8.5-13.2-13.2c-3.5-4.5-5.9-10.3-8.7-15.2
		c-2-3.5-2.7-6.5-3.6-10.5c-1.9-7.9-3.7-15.9-5.6-23.8c-1-4.2-2.9-8.7-2-13c1.4-6.2,3.1-12.3,4.9-18.4c0.4-1.4,1.7-3.9,1.2-5.2
		c-0.6-1.5-3.5-3.4-4.6-4.5c-5.7-5.6-11.4-11.2-17.1-16.8c-2.6-2.5-5.2-5.1-7.8-7.6c-0.9-0.9-2.3-2.9-3.5-3.4c-1.2-0.5-3.7,0-5,0
		c-4.7,0.1-9.5,0.1-14.2,0.2c-15.1,0.2-30.1,0.4-45.2,0.7c-29.2,0.4-58.3,0.8-87.5,1.3c-10.3,0.1-20.7,0.1-31,0.2
		c-29.2,0.1-58.4,0.2-87.6,0.3c-33.8,0.1-67.6,0.2-101.4,0.3c-20.5,0.1-41,0.1-61.4,0.2c-1,0-2,0-3,0c2.9,3.6,6.8,7.4,9,11.5
		c2,3.8,3.1,9,4.2,13.2c0.6,2.6,1,5.3,1.4,7.9c0.3,1.9,0.2,4.2,1.7,5.2c1.9,1.3,4.8,1.1,6.8,2.2c2,1.1,3.8,3,5.5,4.5
		c3.2,2.9,5.5,6.3,7.8,10c1.6,2.6,3.6,5.2,4.9,8c0.9,1.8,0.7,3.5,0.7,5.7c0.1,2.7-0.2,2.9,1.8,4.5c2.6,2,5.2,4,7.8,6
		c3.8,2.9,7.5,5.8,11.3,8.6c3.2,2.4,7.3,5.4,11,6.8c5.2,1.8,8.6,0,13.4-1.6c2.9-1,2.9,1.1,4.4,3.6c1,1.8,2.7,3.7,2.8,5.7
		c0.1,1.8-0.7,6.2-1.6,7.8c-0.8,1.6-3.1,3.1-4.4,4.4c-3.3,3.2-6.8,6.1-9,10.1c-1.6,3-3.2,6-4.8,8.9c-0.7,1.4-1.8,2.5-1.2,4
		c0.5,1.3,2.7,2.8,3.7,3.8c2.3,2.4,4.7,4.9,7,7.3c2.3,2.3,4.5,4.7,6.8,7c0.8,0.9,2.4,2,2.9,3.1c1,2.1,0.4,4.9,1.3,7.1
		c0.8,1.8,2.3,3.3,3.5,4.8c2.9,3.7,5.7,8.6,9.5,11.4c3.7,2.8,8.6,3.9,13.1,4.9c2,0.4,5.4,0.3,6.1,2.2c1,2.6,0,7.7,0,10.5
		c0,7.4,0,14.8,0,22.1c0,23,0,45.9,0,68.9c0,28.4,0,56.8,0,85.2c0,27.3,0,54.6,0,81.9c0,19.3,0,38.6,0,57.8c0,4.6,0,9.2,0,13.8
		c0,2.1-0.4,1.7,1.1,2.1c2.7,0.8,6.8,0,9.6,0c6,0,12.1,0,18.1,0c19.2,0,38.4,0,57.6,0c25.6,0,51.1,0,76.7,0c28.6,0,57.2,0,85.8,0
		c28.4,0,56.8,0,85.2,0c24.5,0,49,0,73.5,0c17.3,0,34.7,0,52,0c4.9,0,9.9,0,14.8,0c1.1,0,4.6-0.6,5.6,0c0.9,0.6,1.6,3.8,2,4.8
		c0.7,1.8,1.4,4.8,2.7,6.3c1.3,1.5,4.6,2,5.5,3.7c0.9,1.8,0,6.5,0,8.5c0,2,0.2,2.7-0.8,4.1c-1.6,2.2-4.5,4.1-6.5,6
		c-3.3,3-6.7,6.1-9.9,9.2c-6.9,6.6-12.6,13.6-17.3,22c16.2,0,32.5,0,48.7,0c4.5,0,9,0,13.6,0c2.4,0,5.2,0.4,7.6,0
		c6-1,6.9-8.7,10.2-12.6c2.7-3.2,7.7-5,5.6-10c-1.4-3.3-5.9-6.5-8.4-8.9c5.2-1.3,10.5-2.6,15.7-3.9c-3.4-2.7-6.7-5.3-10.1-8
		c2-0.7,4.1-1.3,6.1-2c1-0.3,5.5-1,6.1-1.9c0.5-0.8-0.7-4.9-0.8-5.9c-0.2-1.7-0.5-3.4-0.7-5.1c-0.7-4.3-2.3-9-2.6-13.3
		c-0.2-2.5,0.9-1.6,2.6-0.4c1.9,1.4,3.8,2.8,5.7,4.2c-1.2,1-2.4-0.1-3.6-0.6c0.6,3.7,1,7.4,1.2,11.1c7.5-3.8,11.2-12.6,13.4-20.3
		c4,1.2,8,2.3,11.9,3.8c2.7,1,2.7,1.9,4.1-0.2c1.7-2.5,2.9-5.6,4.3-8.3c0.7-1.3,2-3,2.2-4.5c0.2-2.3-1.1-5.5-1.6-7.7
		c-0.6-3.1-0.6-2.7,2.4-3.8c2-0.7,4-1.5,6.1-2.2c-1.7-1.7-4.5-3.6-5.7-5.6c-1.2-2.2,1-3.6,2-5.6c2-3.8,4.3-9.5,4-13.9
		c-0.1-2,0.3-1.3-1.3-1.9c-1.5-0.5-3.5-0.5-5.1-0.7c-2.3-0.3-2.4-0.8-4-2.7c-3.8-4.6-7.6-9.1-11.4-13.7c-0.1,4.9-0.2,9.8-0.4,14.8
		c-2.6-1-4-5.1-5.3-7.3c-2.8-4.7-5.5-9.3-8.3-14c-1.6-2.7-2.7-4.8-3.7-7.8c-1.2-4-3.5-6-6.4-9.1c2.2-1.8,4.3-3.5,6.5-5.3
		c0.9-0.7,3-1.8,3.5-2.9c0.5-0.9,0.3-0.5,0.2-1.8c-0.5-5.8-4.2-11.6-6.4-16.8c-1.9-4.4-3-8.2-3.2-13c-0.1-3,0.3-6.6-0.4-9.5
		c-0.6-2.7-3-3.6-5.2-4.8c-4.3-2.3-7.5-4.7-10.7-8.3c-3.6-3.9-7.2-9.1-11.7-11.9c-2.2-1.4-4.2-2.7-6.7-3c-3.4-0.3-7-0.2-10.5-0.3
		c-3.2-0.1-2.1-1.8-2.2-4.9c-0.1-2.1,0.2-2.6-0.9-3.9c-1.3-1.6-3.6-2.8-5.2-4.1c-2.7-2.1-5.3-4.2-8-6.3c-6.1-4.8-12.2-9.7-18.3-14.5
		c-2.3-1.9-4.7-3.7-7-5.6c-0.9-0.7-2.9-1.7-3.4-2.7c-0.7-1.2-0.2-4.2-0.2-5.6c-0.1-3.6-0.3-7.2-0.2-10.8c0.1-3.7,2.9-7.1,4.6-10.3
		c3.7-6.8,7.3-13.5,11-20.3c0.9-1.6,2.3-3.4,2.8-5.2c0.5-1.9,0.2-4.4,0.3-6.3c0.1-2.2-0.5-5.7,0.2-7.8c0.9-2.5,3.8-5.2,5.4-7.3
		c1.5-2,3.1-3.5,2.4-6c-0.7-2.6-3.7-4.2-5.7-5.8c-3.4-2.8-7.9-5.1-12.1-6.4c-5.4-1.7-11.4-3.6-16.9-4.8c-2.2-0.4-2.3,0.1-4.2,1.6
		c-3,2.3-6,4.5-9,6.8C579.8,242.2,578,243.5,576.2,244.9z"></path>
	<path class="st1" d="M506.4,17.8c4,3.1,8.5,7.2,13.1,12.5c5.3,6.2,9.2,12.1,11.9,17.1c0.8,3.9,1.5,7.8,2.3,11.7
		c0.1,4.1,0.1,8.2,0.2,12.3h228.9l0-53.8L506.4,17.8z"></path>
	<path class="st1" d="M541.8,114.2l1,3.3c6.2,5.6,13,12.6,19.9,21c7,8.6,12.6,16.9,16.9,24.3c2,1.8,4,3.5,6,5.3h177.2l0-53.8H541.8z
		"></path>
	<path class="st1" d="M683.4,248.4l-1.2,15.7h80.5l0-53.8h-89.2c1.8,2.6,3.7,5.1,5.5,7.7c1,2.4,1.9,4.7,2.9,7.1
		c0.7,3.2,1.4,6.4,2.1,9.6C683.9,239.3,683.7,243.9,683.4,248.4z"></path>
	<path class="st1" d="M697.2,360.2h65.6l0-53.8h-96.9c-6.1,0-12.1,0-18.2,0"></path>
	<path class="st1" d="M730.9,430c4.2,11.2,9.4,19.9,13.8,26.3h18.1v-53.8h-38.5C725.1,409.8,727,419.4,730.9,430z"></path>
	<g>
		<path class="st2" d="M524,303.1l-84.4,61.3l32.4,99.6l-84.5-61.5l-84.7,61.5l32.4-99.6L251,303.1h104l32.4-99.1l32.3,99.1H524z"></path>
	</g>
	<g>
		<path class="st3" d="M1276.2,561.3c0,12.7-6.4,19-19.1,19h-54.4c-13.2,0-19.8-6.3-19.8-19V242.8c0-4.2-1.7-6.3-4.9-6.3
			c-3.8,0-6.1,2.1-7.1,6.3l-76.3,318.4c-2.8,12.7-9.2,19-19.1,19H1043c-9.4,0-15.5-6.3-18.4-19l-74.2-319.1
			c-1.4-5.2-3.8-7.7-7.1-7.7c-4.7,0-7.1,2.6-7.1,7.7v319.1c0,12.7-6.6,19-19.8,19h-57.9c-11.8,0-17.7-6.3-17.7-19V35
			c0-12.2,5.9-18.3,17.7-18.3h108.8c10.8,0,17.9,7.1,21.2,21.2l63.2,265.5c2.8,12.7,5.8,19.1,9.1,19.1c2.8,0,5.6-6.3,8.4-19L1127,35
			c2.4-12.2,8.5-18.3,18.4-18.3h111.7c12.7,0,19.1,6.1,19.1,18.3V561.3z"></path>
		<path class="st3" d="M1672.6,423.2c0,43.2-15.3,80.2-45.9,111c-30.6,30.8-67.8,46.1-111.6,46.1h-140.6c-5.2,0-9.8-2-13.8-6
			c-4-4-6-8.8-6-14.4V36.4c0-13.1,6.6-19.7,19.8-19.7H1515c43.8,0,81,15.4,111.6,46.1c30.6,30.8,45.9,67.8,45.9,111V423.2z
			 M1575.1,415.4V183.7c0-21.6-8-40.2-23.9-55.7c-16-15.5-34.9-23.2-56.8-23.2h-21.4c-13.8,0-20.7,6.6-20.7,19.7v348.7
			c0,5.6,2.1,10.5,6.4,14.4c4.3,4,9.1,6,14.3,6h21.4c21.9,0,40.9-7.6,56.8-22.9C1567.1,455.5,1575.1,437,1575.1,415.4z"></path>
		<path class="st3" d="M2068.3,199.2c0,41.8-14.5,77.4-43.6,106.7c-29.1,29.4-64.6,44-106.7,44h-49.6c-12.8,0-19.1,6.3-19.1,19
			v192.3c0,12.7-6.5,19-19.6,19h-60.3c-11.7,0-17.5-6.3-17.5-19V35c0-12.2,5.9-18.3,17.7-18.3h149.1c41.9,0,77.4,14.7,106.3,44
			c29,29.4,43.5,64.9,43.5,106.7V199.2z M1968.7,208.3v-47.9c0-15.5-5.8-28.6-17.3-39.5c-11.5-10.8-25.4-16.2-41.7-16.2h-39.6
			c-4.8,0-9.5,1.8-14,5.3c-4.6,3.5-6.8,7.9-6.8,13v124c0,5.2,2.3,9.5,6.8,13c4.5,3.5,9.2,5.3,14,5.3h39.6c15.8,0,29.6-5.5,41.4-16.6
			C1962.8,237.8,1968.7,224.3,1968.7,208.3z"></path>
	</g>
</g>
</svg>